<mxfile host="65bd71144e">
    <diagram id="m5GSpiYD7PpLpnDxXoF3" name="Seite-1">
        <mxGraphModel dx="1386" dy="825" grid="1" gridSize="19.685" guides="1" tooltips="1" connect="1" arrows="1" fold="1" page="1" pageScale="1" pageWidth="827" pageHeight="1169" math="1" shadow="0">
            <root>
                <mxCell id="0"/>
                <mxCell id="1" parent="0"/>
                <mxCell id="2" value="" style="shape=stencil(lVnLchw3DPyavaJIAnydFec/XGXJ2ooiuWQlsf/eoNccLcCdnvi2loEh8Wo0wBPffX38+OX+lMLXt9eXv+7/O396ezzxH6eUzs+P96/nN/114g8nvnt4eb3//Pryz/Ony7+/fByS49ffL/+OL3y76AXKMpRS+D7/EMrPP/x5EX86P1+JC8Xoxfu+eNTPByf/6wO35TMJe3nel0+RQnLyCVw/FWrdyRdwf07UqpGPJA3IN6rW3kSlAncylWzkhSQA+UrZypd5wZvyOczrbvcP08O3FVaDM0XgoSzU7AnDReiEQsVmXGqU0QmNYjEKXCghozuJPUFkZvlNhRKIbdapG3qGCtUaXSIxiNtQsHlROiVkdKdmC62q30DmqZfYntA0lDgObCPdKnWkIBRs7vVEKQGFSNme0DOMg3Rfzb1RQOVTSJxCP6q3am2IQREMVVykJP4IBDEKAa4gesUYsxSEuikhkBEqyQcCoaSimMu+1igBoznM9N8UGBZ16h7nq0YO2KA1zxaIayJGyK1OtDVaNIFBjaoC2zhoTaGiHidYt2aGNao2VGuDZGrghOFWeyVNFtQONdIu+fQTqD/o91xRJ8YVxDP7t4IouEYVJCwwaUepwIYBpdaGDEt0wL1rWdQQtLIPGy5oBd64yIMoV5l5+X6fDjK7dt9MBMo3mcdvtUYCkqhpd7PyUT0MHKpowtbg2GBeK8A5kFQWk4FLVcGRhgPaowq9eIUGeWTweaqJHQFejCO6V0AQNhTYK6COO6xeFJARoze5K2ns8ZUcOR8K+EoO89LWtPcUHMCoDYgEqEJcjK4AL1QhFK9wkExhOSHhK/kT0kyvXRvEK1RAZIaX1oLARrvupgqCT8jLCQjoR42GRQEb3RajCz6hLwoNAP3NikO953ZRM/arxw0+MsIjE0NWPPy6FgQu6rwWNcY+N+IeK6TFr6ij/L6CLENfn9RmrwcFpyCzK91W4FlgV6whgGTSLhoszVBagrquULQ34skXd1mAozFzpNtjGc3xJCqg3JTFZDe0QnqrVNNNMnWC1G0atpGEKxaAqOTYNDiDKyarK6wKHnyyn944YrIa5wWu6DDaZuiU4bJIB0A0dr9vFq4oPbrSGEscWd1wc/cEtwnIEC/UBnaDvboBtAZl/K6n1wpTSd1a3WCv3QqNh+wRqVU8luS5f9kG0AADx9WvcDofJV+yV+pl0va9MV2sW8fUjeZ69g20t8mT93YNDjGOlhPN93S1AV0pL+OhAjMa0zWZ2Z0Q4fY2Z49KGmk0LOXq3aq5FEHgFPeaPaGWOQ/tLbqqm+s3trW7GbMgUCJkPnkhxWOuxza4ZYYInLDUS35ML5AqaRz8hHVgtCykOGGF5Hl6xFApfZnrI7RB1GiXGjAMWnBiM6PA8uEFu2XuNnZX9TZqDBfXY3PuYgAp+nhqiE4eMZj1KSNSBwFYn0pUHuHRSmA6aFTLO0+EKR183R993THOOGFgR3xZ8VSAEcFvSOKEsT1x73i0KFyGkAiXqYt4gGFdLhPgUmExVQMBw+QcGWCRL2EKkzX/vyTAm7LffEo8FNcf76+WD+enp8uj5/X/+1dO/dPlhZQ//AA=);lineShape=1;" parent="1" vertex="1">
                    <mxGeometry x="257.4380892221466" y="123.39853501272705" width="103.18726540964462" height="59.22436580873068" as="geometry"/>
                </mxCell>
                <mxCell id="3" value="" style="shape=stencil(lVfZbhsxDPyafSUoURef0/Q/AsSpjbp24Lht8vfldiFEhzNB3ta7HItDDg8tcveyf3jeLZ5frpfzz93fw+N1v8i3xfvDab+7HK72tMj9IndP58vux+X8+/S4/X5+WC3Xp1/nP+s/vG44UXJuRXl+294wKf9/8X2zPx5OjX3wFFJnnyk7YF/IS2fvIhVwQHSkuQN4Tz4AQCSNHUCYcv4YkDzF3qXgiIFLmasDFRDNJUA6Fwq9S0lq2G4CSqDAfVQjRUBaHZU+SqVQko8BjrlyrAi11KMjlGQCBMBaE5U4AlIEAE/qRkABLpVctdkAFMXVk/SZa+JwO3VGYvJJAYlsmdCJhAfyK8QTAKUuxfp/DUAKBMjEwYHMpURpOKHUXN4GmMc8AhCHLKRhBKCKyEp+OkFwCY1RMgBSH9cabl0CHDTUxtUAIsiDfXYyhRWIb1XOAFBixEEpTwAB4tNcC6wBRNAsjbSkEZAB6WLSmAAKwmqJ833iPq1R09pco8AnU1+YKqigETGrz1gDl6yCZCrqgE6I5MsI8OiErwJiJp5HBHApmBLmIQTCGqTWSzPmIlCfROJ5kIKi9hOHdVQjANeZ1iwDBbQ+20ZSn7h13VAAcPVzu9CgsI6t0hYmwGAa0wzHD1MIg3lGawCpDuYoYYFiGswFlfLsuwP6cX7ePRlE0qWxtZg9yK2xlTzag4rxsXaRxh7E3qQ1dC7ji+xlbO8MpSbTWGbYU6TU/ezdPoH4f3X3/9zeHt4vGk+H43G7p7Tfx4uJvdouNXL/Dw==);lineShape=1;" parent="1" vertex="1">
                    <mxGeometry x="238.43418359183738" y="219.43641737381995" width="2.893494959205327" height="60.834250626962785" as="geometry"/>
                </mxCell>
                <mxCell id="4" value="" style="shape=stencil(lVfLctswDPwaXTEgCBDkOU3/IzNxak1dO+M4ffx9qaqaimAKWTdawgrPXdBDfHg7Pr0eBsK32/Xy9fBjfL4dh/hpIBrPx8N1vNXTEB+H+PByuR6+XC/v5+f59+vTZDmdvl2+T1/4OeMCIiBOMMJffx+B0J8Hn2fAaTyvACVDpNZegJMDUAihAcTqMjiABNR6YIQgDkBAcgOQAOzlIBBaD4kgowNg0NaDRsieBwbhBpAZEruAEhtALXTyPJBNuhRApw9ZQNUCvMapAAULUAdQi4hkAcVpHCtIG9JqHD9ExAixS6I4AEIoXRJJ/w8IdfzRAmJ0srazVBtXnMbJ8rWVPTsBFcuGao/OJAWFaAZDIWWnRDXeZAHsEJQJlC2AnMGQ+roLyQNoAJQ9IWWCFPckXdAyeiqrJzK8jM26b56HqhCdB28wct45eVoJ30mAN9spLZJyJ3uEFh29m6AKpSeoU1fiD2TJU5nAHSE2dMzmsCGUAtg12lPi/fbc0m1jNYjNd2P3sJ27jeXGtj4b2zNa5mys5+q9NPYb+z8sxL3zgrHzAlOTE2Me3GnQVlgQshd8t5YRxLGfskVj7yljJCA19lic5kYoNh6Pv5IAbb6efdK+Pl48mhcdvy/fXNlrv+/Vs8p0Vx+vX5Wrsmccdt+X7wDUw7/r+ct4Os23+/V7e52vj+a/AvHxNw==);lineShape=1;" parent="1" vertex="1">
                    <mxGeometry x="250.43050094123487" y="223.43465006292035" width="1.1389981175302637" height="37.133506957057534" as="geometry"/>
                </mxCell>
                <mxCell id="5" value="" style="shape=stencil(lVbLbhsxDPyavRKUqOc5Tf8jQJzaqGsHjtsmf19uN9qaUneC3NYyRxQ5w8ckdy/7h+fd5Pnlejl/3/0+PF73k3yZvD+c9rvL4apfk9xPcvd0vuy+Xc4/T4/L7+eH2XL++nH+Nd/wuuAc1TSDPL+9H1Sq9e/J18X+eDjd2mcKbAB6RYrbAEmUO4CnAgBRyHkLEMqyDUi+vfgmhlC2AblQth5cIg881ELOZomJGdpnZx0Qo/srefugSBGQoPZJ7P1CHj1ISeU+pwxS5HiNsCEkkMvYhY0hRBIcdMo2aAWAN81ZsoAk7WSThg6gRCIPhbzlLVWKCJD7GFImAeJWgLNaTa7Vx/8BiUonDcFaTZQsccG3K7YA0YpbHEWU1rGimVKCQXNXDq4JfgsQoo2BPM5qtTQwBSyMKJ29x8rjLkWYNFVNFzB/JO3SFXRtNG5Wm9WRaMgOA2yKgvZt/KSueKLHwqvtAau0mWqALLz/vQISVRRD6WfPXJ5IR58FzJPBEl0S7MTagdhmqTJlEPQ43bScUBMb5+fcQ4CHcUJrGgQBhhWA8XhzFGrvoEAHbHmukQJggdtCsZJQoZC4hbfa+zbgN+ydFWoOcCwMozAF2FEHex1saHQO79HJWUAdDPFKhhIa8qm9gkE7HfjS9osGwqAHPXHw/k/unB/a68e/BffpcDwu+/Ht//1CrEfLMi33fwA=);lineShape=1;" parent="1" vertex="1">
                    <mxGeometry x="221.41552205466564" y="250.1169841502499" width="29.79216108092919" height="1.4717832978485603" as="geometry"/>
                </mxCell>
                <mxCell id="6" value="" style="shape=stencil(lVbLbhsxDPyavQ4k6n1O0/8IEKc26tqB4/Tx9+V2u6nJYKfIbS1zKJLDoTilu5f9w/NukvByvZy/7n4cHq/7KX2aRA6n/e5yuOrXlO6ndPd0vuy+XM6vp8fl9/PDbDl/fTt/nz38XHAJOc8gCb+Wg9pR+5+Tz4v98XC6sZeKIgaQB2rbBuSCFg0gFQi5oRbEZgASUWUbMNRfNYCAmIh9RQ3efhD7hm79RzTmv2O4EqGQhIcW0PrvyHXbPoaAYBOIglHoDcNyEBsKS3kgB89BZzl03xZSkHhRk01aGq9qRSgW0GnjjYwmHhAjASQUWyVtdgoQFBeSoLOQIoZVW+xomQKaA2REDhhWPAOFRSSoNueCzGhLXjuCxOLJ6JaEsA6cLZaj1/LfXt9qo+y1GYh2tE9d/Eo6869CsBQ3BK7lkWw8EZkNLwUMC6g8g+EZ0xIVdkNHd12aOWcqRDeAGyIrUl1reKO0wrX8MUCt6BaQO+3T3FZ/b+9aQiBJz8PElrXpCQEUP7SVGJZCXnX4xnPgra0vc3t3ARny4l9yJV6I/+gn9jxhScIBzTaqzoJIpBAgNv4+Vg8b9u5R6xoPGV3v7QVC43dbQutUN8GroOliQuyj7+nG41G+XMOF9YXb6ocPbWr/t9ePf2vh0+F4XLbK2//9GqlHywqa7n8D);lineShape=1;" parent="1" vertex="1">
                    <mxGeometry x="238.36300784504328" y="253.6062453059294" width="13.99341922793974" height="4.035171640279941" as="geometry"/>
                </mxCell>
                <mxCell id="7" value="" style="shape=stencil(lVjLbhsxDPwaXwmJlCjpnLb/ESBOYzSNAyd9/X3pGrJNenfQ3NZrzi4fMyS1G7l7e7p/3W44vb0f9t+2v3YP708b+bRh3r08bQ+7d7vayOeN3D3uD9uvh/2Pl4fT79f7o+Xx6vv+5/EJv084Fer1iOL053QnK+X+786XE+B593IFKI10OAAXYl0HiJJkBxCm0gAgUfEuyaDE6wAWauoA5mSRdUBuNMQBqlIfACBUkwOowhhyouaz1Op8xBqgeJc600BvEBrepT5IQdDMlJsHdEoFAEYMutdJluXCWdZTjEGAS0WpepeasQu4VMvMyRnAkyyLAKM391i4kdcBLVH1bFWmBArXBnHxXGJSAOiFun9DSZRBlrpx09ObGwmghuWkeS5lnhpcC1p9WnOGXNJOI3SNBF3SFiXaZxtZs2f2ZaAGiGH24vVWZg7WAmAfAMMGoIOaL1omAV2yWf68fZoOLttbC2vBHrKu0ijBHjVh09WI/megG2N1aSE/FTy/3/TsQoLtAx9sSgB/zF788zsJGAlHVXrdG0ETKpg1nsDoDGeIVUB9BUxkjABCRSOgoBrn2TyvXBogaL0pmgWNGrapIHnVWNqwKoNHDUZwVLEPuUIVmH33/gicshZwDimljkqQblWjSDUyB+SVKpF9nQy42Ges4g/ZjzFFdValFRiuIec2ckZ0qqCR2itS2NZ0DrhlgMYFshQqCCDTgTMpjNZAmrbXiJ8F1TYT1CxKDForHGcm/hq2tQSVZn+HnfbYDgAzNM/xde5feS4ay5sOx/bSG9RmsQHmszTsESAGEcpB/ArVY2IMQ3/gdpFtBnuXrvi4nKa5RJzf0GBPzcS+DCPNOb1of6MGW1ARufM8Cl2tmwOUucwhebU8DsBU43FgNkNm55uxb2VHc9xqFrZTKzuDDNnhq4bFSCmBN5gD4aRjB0jUYWqPx4oGa2ZiDwfONne3ZQ6lWaKLPWrayjFFDaZUb+Z4m1Vcti8xox0/v872eRnKUDMah/hx1UEOadzVbK/IKEMaK5bxuU41ptROqwUN/hprnAsUgiW1h/2u4lXho985/gNgF5fPKo+75+fTV5nr/+NnGLt1+oQjn/8C);lineShape=1;" parent="1" vertex="1">
                    <mxGeometry x="286.61309701630444" y="240.21245261139256" width="13.70897152675093" height="14.964749930631115" as="geometry"/>
                </mxCell>
                <mxCell id="8" value="" style="shape=stencil(rVbLbhsxDPyavRKSSEnUOU3/I0CcelHXDhz39ffldrOuxbXHLdCbvOZInOFz4Ie37dPrZkjh7XQ8fN58H59P24E/DCmN++3mOJ7sNPDjwA8vh+Pm0/Hwdf88/359miyn05fDt+mGHzOuVOI2oVL4OX/J1PLvDx9n+924v7QvpLGzj0q1AECl2gNSoyC3AZUp9ADBLlV7IfcUCjF4QROFnrOxqvU2oDXKoQM0c1IhoNQeINQaABSS1APOQl8HBM+hKTFQSeOiyRnQSFAcIsXgAQ2QLoGEVwDAIRsge0Di2wBJlKInHcALXCgXL6sEABCK7gWhDFTivFIpUUGAtlIpkILUkEKl56B2BQBY9rsCUqUM0tuyPycPQHGwinvP/ssXQBzUXmieA6MCEgrZq1SBrJYIRX0cBPSlGKyCXOSEGCBaJV0lE5LJPPBtw64ArFVIXNtoFFEghEr0AEWhZmo9hwsdrmcTU1lV9Xu6XM9XoepY60LrekXoquYKNQSwknTJYVX4PwHWhvpksilWQOAySW+fK5xAq9Y6FTm4f5Wqd2ZooNbb3xnSgbhvAHji2ihx7sPql0XrxZwpAmfOrp6dh2MnymojoQDyc7qudyfAwWlSa3L2qGC4evGxvW03bn3B/uS0DNW/45t1VfJ4jLMvFhwumx7i9jXYH/5547xrb4c/6+3LuNvN2/Hl/34dtk/zKs2PvwA=);lineShape=1;" parent="1" vertex="1">
                    <mxGeometry x="296.2394530578613" y="239.25222106224032" width="2.246450515163815" height="12.56937531008748" as="geometry"/>
                </mxCell>
                <mxCell id="9" value="" style="shape=stencil(rZfbchoxDIafhluNZfmk6zR9j8yENEwpZEjSw9tXW2JYa7N/m5neLaAPW9Kvw27k5vnx7mm7ieH55XT8uv2xu3953MinTYy7w+P2tHuxp43cbuTm4XjafjkdXw/3589Pd5Pl9PTt+H36h59nTqi0CYrh1/mLQK38+eLz2Xy/O8zMGyUZzCvVsG7OmTgP9tyI6zoQI8l4QFQScIJdIJYBkEohrQMiFHkAUqEEXBalXAcgF3hCyiQ6ACVTAD7kQGWMUo2UGwAyTb/NASUGV8pKKQ1ASyTA6SKk4wnNEgd8KI3q6IOakgBQhep4JTWnFQCNmgMEnjC5OPqgiRqvA2piHotBM6UMgEaZPVDAlVR9PRigIA8GOGlo6WeuAeqiVIlBWCdAPfCW+zWgOacbFSA+A5IDlCIOaxMPVOS0aXMBwLBWkrYAQMVZ1MsCqOgE6xHVA2+t7X0g9yDOwlox4HqxAQEl7iLmWaYjkkbuUZ+JD8q7EDcPBORDWWjJwoCASlk8gLq3xSRWD2QUpUa6KNGG6yEH77TgEm3FAwrqgUPo82OWuYLkamp2QOtFuOqEu5NSwI0pJA+gmWUXkEVBKBJT7Uq47A7XOPwnosmihrQPjfeH0GXfmQWWgWBtkvMi2WjMFSsxByS4ARXuk/wCMF43is91K7Docuzt+gIw3OKSJWLMdU1UQFjTYu0ruCSk+D6QG177TAjjmEtWEWixTMTj9mCLYAAlxOozLQy1xOx3LFu+IwCy31ytgEDaAsmYNekXXDF3/kY4fhYtKfZF/N/Mue9aa5dhZ45aqrk6NiPbPeG/uxILcKfi3gmv5hFIjft8uZqjThp9ZHDLipT0Q//uphmWmHjNhD7cVsw/9Pb4V3N7uL6oPuz2+/N77vx3/2JrX51fiuX2Nw==);lineShape=1;" parent="1" vertex="1">
                    <mxGeometry x="302.43765750499506" y="217.4339773138297" width="27.904624093335315" height="28.164961456635865" as="geometry"/>
                </mxCell>
                <mxCell id="10" value="" style="shape=stencil(lZfJctswDIafRlcMSHA9p+l7ZCZO7akbZxyny9sXqsrYBKU/k5ss4yOIHZrk7nX/8LKbPL9ezqfvu1+Hx8t+ki+T94fn/e58uOjTJPeT3D2dzrtv59Pb8+Py++Vhlpyffpx+zif8XrhILs2Q5z/LC0fR/XvxdRE/Hp5vxB1TzL28ECOgUHAdIJ4ibwN6o1o6IFSqABBH7DsgMTkEZGtDdpTCNhAipdgBxbUjVoEYKHMPVPJxG0hCtXZAlaZzFciech+3GimAK9VMIlZDABpqIecGoECgDBoy0lAp9IGrgTyIgwJWQ6ACruSYidm6KYF0VRXV3CmRYCOS0ZCJBQKcLRCxX6VYoCINmZKxoRAnACQqcdCAApFs15htqACIw5XUS8itkXwd4oDyW4Ex0shLsZ13k0yozyhgS07TFbtVjFu1IHCN2tTQkkNuzUPgFECBK0O2Cmx9mq3/K/LGaJhLlfJQ1KiTzRVnjNbIYA0WSK1VbV5JLFA8NnpI74A0lJX0Lsit+rexQUv0A6B8BtCRZrL1phmuzyA33ClDN0UdgsZqD/M7ONu/S4BDS4R8b3WW1p/Xl4dEsS+I5FurWgdcy7UGqFUZjRSxu4CE1qrWvdR8+B4HXbmACdwWhffzKYHjubXRqzhj8b7+PQwA2x3AtYazIW5aqiMPT8+9OMP0cTYZuA3GDfFiT0d+923vvYqjahE7ARlOfW381Yh70FCCnRy6doPTdQuyd69oPf3czv+huD5cPy+eDsfj8nVy+7/9HNFXy6eM3P8F);lineShape=1;" parent="1" vertex="1">
                    <mxGeometry x="324.43468510630305" y="216.43533166056795" width="20.928554444368046" height="21.734463016349764" as="geometry"/>
                </mxCell>
                <mxCell id="11" value="" style="shape=stencil(nVjZUhwxDPyafVXZ8v1MyH9QxRK2QoACcv19erLxYGuYJsnbsKh9qHW0fAgXz7dXj8eDuueXp4fPx++n65fbQ/hwUD3d3x6fTi/4OoTLQ7i4eXg6fnp6+Hp/ff778WqxXL6+PHxbVvhxxmmRXBaUup9/fmkS4+9fPp4Bd6f7GVDbBIhBaiGAKtlPgJQlegJoonkC5Cgu7QOCEz8Dioo6AvD9iiugSQsEEMTXCVAz3yFJDBOgOSnEraGKzjw0lab7gKgS50s3eCkTAJiOFpDbPiBhPW8BSpjOXlKaAaEv8TagSTA7eHFkh5KlGh4qPVINndcVEKWSI9UmeQYgNCphGle0sYRgYYBkj4Tw9uQOLUuZQwPMJLZDtsTFKIUwDV7DTBziV4mXQFOdAZolkGgFTWUG+CKNEZfEzW71SFoGcLaQZWkkHQpomDfAjuQGxfXtV6dKJEUJpIZs7Nl5UrHnyZIqsfeiJp0pxwgBbxyKTGAVKfdEWTlGfrNCj2zetJLMCr1KmlsJqiDj2OeeKKtPEVekbrdO0epT16vm2yeSqnMuu96Lduzjxj4T0rzlGPasyPs31m8k6NbVBvtCHApvNGsfSWVxtg2igldyX9dTarBXen5rD/HAzzOfP/Oq4nrdHOxZErtNThZxlF/TCzKKEMkA39kc7cl5dLN+oTIE8RysfSbxtnauwf+eFJXQu8RgX5mOEm/u23oE7pzftErEJ/O/9gI12Ceav95b+0rsvS1YSz6ygtVP+5fru87OeH4an7q5L9NPruvo0f/cfhMPTD05688lfuj6wdSTQjvGv9pnK1NSpf7xwWrkyHX+lgEoJ5ZhGJ/McINDshQIkA0zBx6Sl+yAwSDNSQPlxMRccn1ueFVCLEihVMydVQK5wSJv56hw1EVLjlh7RzgoxVYtR5tS1a4ZVs6kMO1a7EjQaBGCOM6zP6FblCgtyG8z1byjFVuxfQxREpgOalYsQg6yRu/dJvUxdLDWhC3M0JETrV2YUrwpdqlH7p5fTXXHdKcEgBnCyIPKyxciyRCBIZwl51JujQjHHVhBUnHzkcAlU4zwupojNRpMGPMN1QOXbyN8D4VxC3ImlLjm7SWYrAtqH2gwNQf2yNT6Y8nK3PpOtffIZDpb5Z0WVTfPgKL8GSt1JTqM7XQcin294d2LRR/KkFHvSFLHvBQsce8NXMHOQ/AbKzQAmLc7AChxwb4OLu+FrIHGTTMp/TFiD1C8BThSBTRZkfoqC/YARTcAtkPuZWgAMFm4BN/GSyyBlituADQfSm/JA3FMyQOQNgD2nvA/D8fvAfDx+k59c7q7Oz9zj/+379r46fwmHi5/AQ==);lineShape=1;" parent="1" vertex="1">
                    <mxGeometry x="343.0126227663113" y="207.70773994471733" width="31.281361169310912" height="24.700236949850023" as="geometry"/>
                </mxCell>
                <mxCell id="12" value="" style="shape=stencil(lZbdUttADIWfxrdnpNX+XlN4D2YIjYc0YUKg5e3R1mOIlkSd3vnv88pHR8c7yc3L9v55MwV6OR0PT5vf88NpO8mPKYR5v90c55MeTXI7yc3j4bj5eTy87h+W8+f7/mQ/+nV462/4s3CNUEKnAr0vV2JCan+v3C3Abt6fAxmlGCAJWnWAhsoGyIKaXSCJAUoEeyUltGyAqis4QG2IFmiMFh1AVbIltYLE14FCyFYlJgLRdSITJNolGtiRKRGq7ZzqQE4jooBtI2oFO4BUkAVK84EMsrrmBhIHKGMjUkV1VIphXCGqW5zO6W1pFggITklaQK4G0CKzs0KuaMkCGSE53lARrZlU6OB8dG+TXUFbGfyBoGFG6V8zykPjCLFcB87c/OkNWoPh8hI6MBbQofJa3UdysGtbX3FZJh36YUg1GJySeqzYkr6i53KrBeXbjFYnBjQa6wBofHozmhCHoVZZHTN1QP4HkDima09Dx0whrm7+BBKyE0yc1rQ+i43ofHRBtW4tDHHaEMYwzrym7cXn1ar2AxKvKXLteWuLSODg1ZNsYgRfUc0TWz831xQcR4GYkZweBxmBBHEmRz0x/Bm0AY6garpBofHfpgdfO47HebdbNizn98cdil5adjdy+wE=);lineShape=1;" vertex="1" parent="1">
                    <mxGeometry x="351.8631549603631" y="217.8554605684617" width="2.51462274023811" height="2.5223367616044925" as="geometry"/>
                </mxCell>
                <mxCell id="13" value="" style="shape=stencil(lVnZclMxDP2avGpsS/LyzPIfzFBohtIypWx/j0zGt9dy7il9SxsfW9vRlhO/+X774dvNKYXvT48PX25+nT8+3Z747Sml8/3tzeP5yT6d+N2J33x6eLz5/Pjw4/7j5e9vH/rJ/unrw89+w+8LLhWquaNS+HP5jzKp/vvP+wvg7ny/A3CgxDMgUWUAUEplBgTKACCBYpgAUik0AMjEs0giVPIxwFSUWSR7s6RjQI5eB84UgJVyo6gzIFArx4CSqbUJkJQU6FCFwixSChQiALRhkwGIQg3o0HhIvAGwlVqmmiZAoQh0bpWyc/SIrevnzaiznxOFCu9XpwAFdH+m5CxEUcD5SNU5Gd5vLmt1Om9OB+eLUpFZngQBWSi7IAqkwGNG3RxnQKMEYsJ4IrMLuA4jXAUk+3p+QRpkTrSgmI2q5nbA/ripuFnVrgBhIVTnqOvcQxJRmVWuliHB/Ub0WZ5aBy8O7nesMeIFQBshnqPI4paBPJWKO1+Jwf3PaWEHaECBtEXlDoBSESdPTFMBMVl4ROXORgJ0UBkqbgALkwCoo8TzC7VAqxb7euaahYWAOLUo4JkJ1UopSl/qA7vUQdcjQC4LAChtAEfOsrHvCNDEAwoC5JERd4AKrNQBTgfLF6AOXgXAKmKA5AGCreTC2wCKXtAlwzTY8XTH6QJAlVNHMO8ByEoW3nnRAflBPeO6lXC0xsUPjJWO4gERB190OtRRUA91WIMPNTDqG8ke3jg0ZGUcfiEvnH7BD2V9AZu1hUUHlDWMDwugorYnD0LuKYqstCX3vadReBtgCQ1GIpnSi0goGXeKLi+8kCrLaxn3OoDVB51FqhESyCpQdgCBeclqnCu79qYAgFVRda1DhMOh1WmZRWpYJOsEXHPVCuy5e4vtuqUGh0PrZuqsQwwBhmtddGiwX+JBr70KIAeEpVtieH/w/DSvoUAKPgFYYwKbq4XOGfclfurJBbaH1tE7NituQM0DaQZIpQgk4uZV5gJbept7opt7TCSgg01WaQbENsh0NLu5jUGMI0cdDYfq5h4463UmOonggqEPt/P9mAWdVsmdR9V5x6rn6TyiutN8iy5wj2Ss8j3P8Pr18zIK684DiopI8NU/bv3xkcvc/qJzDwAsY8uci1LGU0nz8zlHvAGIPhkZE9BOQnm045sXImwXJPulhOgYMI9WBrpsAFB+ZB0NzsYELBIHHxnKkAtGdrdIskpXgJXSNs/uAWjtUXzV6QBU14rfzum2zDkC+D2JwOnQAK769/IOgi8thHueqo8AsryARrGrAFSqrojEYyI9BKgHIE53s7IHoBGgO0484AU/vG7j/h8A+/C84P90vru7/D6w/97/IGD/uvyYwO/+Ag==);lineShape=1;" vertex="1" parent="1">
                    <mxGeometry x="424.0582184010959" y="119.85769083944956" width="106.95485798115737" height="92.61108173197022" as="geometry"/>
                </mxCell>
            </root>
        </mxGraphModel>
    </diagram>
</mxfile>